<?xml version="1.0" encoding="iso-8859-1"?>
<!-- Generator: Adobe Illustrator 19.0.0, SVG Export Plug-In . SVG Version: 6.00 Build 0)  -->
<svg version="1.1" id="Capa_1" xmlns="http://www.w3.org/2000/svg" xmlns:xlink="http://www.w3.org/1999/xlink" x="0px" y="0px"
	 viewBox="0 0 463 463" style="enable-background:new 0 0 463 463;" xml:space="preserve">
<path d="M373.598,27.133c-2.18-3.041-6.268-4.012-9.582-2.274c-0.989,0.52-24.563,12.98-53.473,36.261
	c-17.468,14.066-39.056,33.971-57.964,58.763C248.152,48.517,239.233,7.726,238.821,5.873C238.059,2.441,235.016,0,231.5,0
	s-6.559,2.441-7.321,5.873c-0.413,1.857-9.333,42.654-13.759,114.022c-11.253-14.824-24.487-29.227-39.612-43.044
	c-36.381-33.234-70.394-51.242-71.824-51.993c-3.313-1.739-7.402-0.768-9.581,2.274c-2.18,3.042-1.783,7.226,0.93,9.804
	c39.689,37.722,70.37,74.922,91.19,110.568C198.598,176.735,208,203.725,208,223.5v9.778c0,9.992-5.521,18.812-14.063,22.467
	c-37.725,16.146-60.883,54.54-57.627,95.538c1.827,22.999,12.218,44.655,29.259,60.978c13.826,13.243,30.984,21.977,49.296,25.268
	l-12.668,12.668c-2.929,2.93-2.929,7.678,0,10.607c1.465,1.464,3.385,2.196,5.304,2.196s3.839-0.732,5.304-2.196L224,449.607v5.893
	c0,4.143,3.357,7.5,7.5,7.5s7.5-3.357,7.5-7.5v-5.893l11.196,11.196c1.465,1.464,3.385,2.196,5.304,2.196s3.839-0.732,5.304-2.196
	c2.929-2.93,2.929-7.678,0-10.607l-12.651-12.651c18.534-3.234,35.667-11.857,49.559-25.224C316.599,394.146,327,369.705,327,343.5
	c0-38.176-22.685-72.597-57.792-87.691C260.577,252.098,255,243.383,255,233.607V223.5c0-19.775,9.402-46.765,26.477-75.995
	c20.82-35.646,51.501-72.847,91.19-110.568C375.38,34.358,375.776,30.175,373.598,27.133z M231.503,55.047
	c2.722,21.56,5.534,50.229,7.139,84.921c-2.5,3.988-4.903,8.077-7.191,12.261c-2.219-4.066-4.593-8.11-7.099-12.13
	C225.955,105.379,228.774,76.649,231.503,55.047z M194.476,139.939c-11.474-19.645-25.793-39.696-42.828-60
	c3.081,2.632,6.196,5.381,9.321,8.241c30.358,27.791,67.695,72.051,77.766,127.819h-16.08
	C220.783,194.564,211.141,168.471,194.476,139.939z M263.282,269.588C292.877,282.313,312,311.325,312,343.5
	c0,22.089-8.769,42.691-24.689,58.013c-15.912,15.313-36.865,23.273-58.992,22.427c-40.042-1.54-73.889-33.977-77.056-73.844
	c-2.746-34.574,16.775-66.949,48.576-80.56C213.908,263.515,223,249.282,223,233.278V231h17v2.607
	C240,249.384,249.139,263.507,263.282,269.588z M268.523,139.939c-9.717,16.636-17.042,32.441-21.838,46.981
	c-2.018-6.016-4.345-12.005-6.98-17.959c17.659-36.673,45.687-66.666,71.324-88.636
	C294.137,100.495,279.924,120.421,268.523,139.939z"/>
<g>
</g>
<g>
</g>
<g>
</g>
<g>
</g>
<g>
</g>
<g>
</g>
<g>
</g>
<g>
</g>
<g>
</g>
<g>
</g>
<g>
</g>
<g>
</g>
<g>
</g>
<g>
</g>
<g>
</g>
</svg>
