<?xml version="1.0" encoding="iso-8859-1"?>
<!-- Generator: Adobe Illustrator 16.0.0, SVG Export Plug-In . SVG Version: 6.00 Build 0)  -->
<!DOCTYPE svg PUBLIC "-//W3C//DTD SVG 1.1//EN" "http://www.w3.org/Graphics/SVG/1.1/DTD/svg11.dtd">
<svg version="1.1" id="Capa_1" xmlns="http://www.w3.org/2000/svg" xmlns:xlink="http://www.w3.org/1999/xlink" x="0px" y="0px"
	 width="181.095px" height="181.096px" viewBox="0 0 181.095 181.096" style="enable-background:new 0 0 181.095 181.096;"
	 xml:space="preserve">
<g>
	<path d="M164.078,32.553c-7.442-8.973-17.941-11.155-25.438-11.406c-11.756-0.382-20.235,4.47-24.647,7.827
		c-2.263-1.635-4.031-2.343-4.621-2.552l-0.379-9.29c-0.001-0.023-0.002-0.046-0.004-0.069C108.813,14.214,107.5,0,98.789,0H84.276
		c-8.711,0-10.024,14.213-10.199,17.063c-0.001,0.023-0.003,0.047-0.003,0.07l-0.379,9.345c-0.834,0.313-3.019,1.261-5.658,3.409
		c-3.815-2.935-11.811-7.785-22.984-7.785c-1.312,0-2.651,0.067-3.978,0.2c-10.091,1.008-18.813,5.734-24.558,13.307
		c-7.156,9.433-9.485,22.727-6.735,38.446c6.438,36.795,16.62,74.861,16.919,75.975c0.15,0.584,2.012,7.566,6.778,14.755
		c6.645,10.021,15.749,15.629,26.327,16.218c1.114,0.062,2.205,0.094,3.244,0.094c5.907,0,10.586-0.959,15.173-3.107
		c0.24-0.112,0.462-0.252,0.665-0.414c3.251,1.545,7.048,2.398,11.506,2.398c4.468,0,8.521-0.876,12.149-2.596
		c0.296,0.266,0.637,0.484,1.019,0.632c4.767,1.867,10.306,2.819,17.429,2.997c0.259,0.006,0.519,0.01,0.773,0.01h0.001
		c10.475,0,19.471-5.465,26.014-15.803c4.526-7.154,6.361-14.245,6.59-15.174c0.562-1.952,11.308-39.501,16.932-76.051
		C174.117,55.668,171.687,41.729,164.078,32.553z M80.817,17.447c0.022-0.319,0.243-3.285,1.056-6.227
		c0.925-3.346,2.038-4.472,2.404-4.472H98.79c1.072,0,3.087,4.893,3.46,10.695l0.263,6.441c-3.643-0.799-7.35-1.203-11.07-1.203
		c-4.184,0-7.878,0.511-10.884,1.161L80.817,17.447z M63.05,174.343c-0.915,0-1.88-0.028-2.868-0.083
		c-20.369-1.134-26.882-25.673-26.944-25.915c-0.004-0.018-0.009-0.034-0.013-0.052c-0.103-0.381-10.346-38.553-16.794-75.404
		c-2.418-13.822-0.529-25.303,5.463-33.202c4.598-6.061,11.648-9.85,19.851-10.67c1.106-0.111,2.218-0.167,3.307-0.167
		c7.921,0,13.878,2.951,17.363,5.298c-6.118,9.22-9.217,21.741-9.217,37.282c0,3.037,0.121,6.216,0.361,9.451
		c0.725,9.803,2.934,39.633,4.739,52.469c1.992,14.17,4.789,29.812,12.651,40.119C68.903,173.986,66.361,174.343,63.05,174.343z
		 M65.109,131.697c-1.75-12.451-3.935-41.986-4.653-51.693c-1.581-21.337,2.826-33.08,6.801-39.174
		c4.192-6.426,8.649-7.982,8.86-8.053l0.165-0.055c0.128-0.043,0.254-0.094,0.375-0.152l0.19-0.09
		c0.06-0.028,6.078-2.827,14.718-2.827c5.203,0,10.297,1.003,15.174,2.993l0.083,0.033c0.048,0.019,0.096,0.037,0.145,0.054
		l0.105,0.036c0.008,0.003,0.04,0.013,0.048,0.016c0.188,0.062,4.646,1.619,8.838,8.045c3.976,6.094,8.382,17.837,6.801,39.175
		c-0.718,9.706-2.902,39.242-4.652,51.692c-2.105,14.968-5.421,25.524-10.14,32.272c-4.412,6.312-9.996,9.25-17.575,9.25
		C75.854,173.22,69.474,162.742,65.109,131.697z M164.626,72.958c-5.678,36.903-16.654,74.894-16.764,75.272
		c-0.016,0.053-0.031,0.11-0.044,0.164c-0.062,0.258-6.39,25.87-26.056,25.869c-0.198,0-0.401-0.003-0.604-0.008
		c-3.879-0.096-7.19-0.438-10.097-1.05c8.732-10.688,11.997-26.636,13.856-39.854c1.794-12.757,4.001-42.525,4.728-52.307
		l0.012-0.163c1.849-24.953-3.774-39.574-9.664-47.883c3.933-2.552,10.198-5.388,18.422-5.105
		c6.113,0.204,14.626,1.926,20.467,8.968C165.206,44.487,167.138,56.632,164.626,72.958z"/>
</g>
<g>
</g>
<g>
</g>
<g>
</g>
<g>
</g>
<g>
</g>
<g>
</g>
<g>
</g>
<g>
</g>
<g>
</g>
<g>
</g>
<g>
</g>
<g>
</g>
<g>
</g>
<g>
</g>
<g>
</g>
</svg>
