<?xml version="1.0" encoding="iso-8859-1"?>
<!-- Generator: Adobe Illustrator 19.0.0, SVG Export Plug-In . SVG Version: 6.00 Build 0)  -->
<svg version="1.1" id="Capa_1" xmlns="http://www.w3.org/2000/svg" xmlns:xlink="http://www.w3.org/1999/xlink" x="0px" y="0px"
	 viewBox="0 0 463 463" style="enable-background:new 0 0 463 463;" xml:space="preserve">
<g>
	<path d="M303.5,80h-13.893l19.196-19.196c2.929-2.93,2.929-7.678,0-10.607c-2.929-2.928-7.678-2.928-10.606,0l-19.199,19.199
		V55.502c0-4.143-3.358-7.5-7.5-7.5s-7.5,3.357-7.5,7.5v28.893L239,109.393V58.607l29.803-29.803c2.929-2.93,2.929-7.678,0-10.607
		c-2.929-2.928-7.678-2.928-10.606,0L239,37.393V7.5c0-4.143-3.358-7.5-7.5-7.5S224,3.357,224,7.5v29.893l-19.197-19.197
		c-2.929-2.928-7.678-2.928-10.606,0c-2.929,2.93-2.929,7.678,0,10.607L224,58.607v50.786l-24.998-24.998V55.502
		c0-4.143-3.358-7.5-7.5-7.5s-7.5,3.357-7.5,7.5v13.894l-19.199-19.199c-2.929-2.928-7.678-2.928-10.606,0
		c-2.929,2.93-2.929,7.678,0,10.607L173.393,80H159.5c-4.142,0-7.5,3.357-7.5,7.5s3.358,7.5,7.5,7.5h28.893l20.983,20.983
		C185.239,124.985,168,148.264,168,175.5c0,15.91,6.26,85.983,16.489,152.733c5.786,37.759,11.84,68.004,17.993,89.896
		C211.323,449.581,220.001,463,231.5,463s20.177-13.419,29.018-44.871c6.154-21.892,12.208-52.137,17.994-89.896
		C288.74,261.483,295,191.411,295,175.5c0-27.236-17.239-50.515-41.376-59.517L274.607,95H303.5c4.142,0,7.5-3.357,7.5-7.5
		S307.642,80,303.5,80z M280,175.5c0,4.253-0.497,12.86-1.438,24.5H247.5c-4.142,0-7.5,3.357-7.5,7.5s3.358,7.5,7.5,7.5h29.756
		c-2.628,28.375-7.039,67.391-12.777,105.713c-0.372,2.483-0.742,4.9-1.111,7.287H215.5c-4.142,0-7.5,3.357-7.5,7.5
		s3.358,7.5,7.5,7.5h45.467c-14.809,89.23-26.936,102.854-29.464,104.779c-1.698-1.301-7.87-7.957-16.134-39.433
		c-2.538-9.665-5.059-20.807-7.55-33.347H223.5c4.142,0,7.5-3.357,7.5-7.5s-3.358-7.5-7.5-7.5h-18.523
		c-2.183-12.039-4.338-25.141-6.456-39.287c-2.096-13.996-4.014-28.084-5.734-41.713H215.5c4.142,0,7.5-3.357,7.5-7.5
		s-3.358-7.5-7.5-7.5h-24.549c-4.181-35.228-6.887-65.72-7.696-81.012c0.082,0.003,0.162,0.012,0.245,0.012h32
		c4.142,0,7.5-3.357,7.5-7.5s-3.358-7.5-7.5-7.5h-31.918c3.616-23.194,23.725-41,47.918-41C258.243,127,280,148.757,280,175.5z"/>
	<path d="M208,239.5c0,4.143,3.358,7.5,7.5,7.5h32c4.142,0,7.5-3.357,7.5-7.5s-3.358-7.5-7.5-7.5h-32
		C211.358,232,208,235.357,208,239.5z"/>
	<path d="M223,207.5c0-4.143-3.358-7.5-7.5-7.5h-8c-4.142,0-7.5,3.357-7.5,7.5s3.358,7.5,7.5,7.5h8
		C219.642,215,223,211.643,223,207.5z"/>
	<path d="M239.5,296h-8c-4.142,0-7.5,3.357-7.5,7.5s3.358,7.5,7.5,7.5h8c4.142,0,7.5-3.357,7.5-7.5S243.642,296,239.5,296z"/>
</g>
<g>
</g>
<g>
</g>
<g>
</g>
<g>
</g>
<g>
</g>
<g>
</g>
<g>
</g>
<g>
</g>
<g>
</g>
<g>
</g>
<g>
</g>
<g>
</g>
<g>
</g>
<g>
</g>
<g>
</g>
</svg>
